<svg width="40" height="40" viewBox="0 0 40 40" fill="none" xmlns="http://www.w3.org/2000/svg">
<rect width="40" height="40" rx="8" fill="#FCE7F3"/>
<path d="M26 15.5H24.365C24.4475 15.2675 24.5 15.0125 24.5 14.75C24.5 13.505 23.495 12.5 22.25 12.5C21.4625 12.5 20.78 12.905 20.375 13.5125L20 14.015L19.625 13.505C19.22 12.905 18.5375 12.5 17.75 12.5C16.505 12.5 15.5 13.505 15.5 14.75C15.5 15.0125 15.5525 15.2675 15.635 15.5H14C13.1675 15.5 12.5075 16.1675 12.5075 17L12.5 25.25C12.5 26.0825 13.1675 26.75 14 26.75H26C26.8325 26.75 27.5 26.0825 27.5 25.25V17C27.5 16.1675 26.8325 15.5 26 15.5ZM22.25 14C22.6625 14 23 14.3375 23 14.75C23 15.1625 22.6625 15.5 22.25 15.5C21.8375 15.5 21.5 15.1625 21.5 14.75C21.5 14.3375 21.8375 14 22.25 14ZM17.75 14C18.1625 14 18.5 14.3375 18.5 14.75C18.5 15.1625 18.1625 15.5 17.75 15.5C17.3375 15.5 17 15.1625 17 14.75C17 14.3375 17.3375 14 17.75 14ZM26 25.25H14V23.75H26V25.25ZM26 21.5H14V17.75C14 17.3375 14.3375 17 14.75 17H17.81L16.7 18.515C16.4525 18.8525 16.5275 19.325 16.865 19.565C17.195 19.805 17.6675 19.73 17.9075 19.4L20 16.55L22.0925 19.4C22.3325 19.73 22.805 19.805 23.135 19.565C23.4725 19.325 23.5475 18.8525 23.3 18.515L22.19 17H25.25C25.6625 17 26 17.3375 26 17.75V21.5Z" fill="#9D174D"/>
</svg>
